<svg width="24" height="30" viewBox="0 0 24 30" fill="none" xmlns="http://www.w3.org/2000/svg">
<path d="M3 0C1.3425 0 0 1.3425 0 3V25.5C0 27.9675 2.03255 30 4.5 30H23C23.5523 30 24 29.5523 24 29V28C24 27.4477 23.5523 27 23 27H4.5C3.65245 27 3 26.3475 3 25.5C3 24.6525 3.65245 24 4.5 24H23C23.5523 24 24 23.5523 24 23V22.5V21V1C24 0.447715 23.5523 0 23 0H19C18.4477 0 18 0.447715 18 1V13.1315C18 13.9302 17.1099 14.4066 16.4453 13.9635L14.0547 12.3698C13.7188 12.1459 13.2812 12.1459 12.9453 12.3698L10.5547 13.9635C9.89015 14.4066 9 13.9302 9 13.1315V1C9 0.447715 8.55228 0 8 0H3Z" fill="#5E5E61"/>
</svg>
