<svg width="33" height="30" viewBox="0 0 33 30" fill="none" xmlns="http://www.w3.org/2000/svg">
<path d="M0.327148 13.6667C0.327148 15.3235 1.67029 16.6667 3.32715 16.6667H11.7011C13.358 16.6667 14.7011 15.3235 14.7011 13.6667V3C14.7011 1.34315 13.358 0 11.7011 0H3.32715C1.67029 0 0.327148 1.34315 0.327148 3V13.6667ZM0.327148 27C0.327148 28.6569 1.67029 30 3.32715 30H11.7011C13.358 30 14.7011 28.6569 14.7011 27V23C14.7011 21.3431 13.358 20 11.7011 20H3.32715C1.67029 20 0.327148 21.3431 0.327148 23V27ZM18.2946 27C18.2946 28.6569 19.6378 30 21.2946 30H29.6686C31.3255 30 32.6686 28.6569 32.6686 27V16.3333C32.6686 14.6765 31.3255 13.3333 29.6686 13.3333H21.2946C19.6378 13.3333 18.2946 14.6765 18.2946 16.3333V27ZM21.2946 0C19.6378 0 18.2946 1.34315 18.2946 3V7C18.2946 8.65685 19.6378 10 21.2946 10H29.6686C31.3255 10 32.6686 8.65685 32.6686 7V3C32.6686 1.34315 31.3255 0 29.6686 0H21.2946Z" fill="#818181"/>
</svg>
