<svg width="34" height="34" viewBox="0 0 34 34" fill="none" xmlns="http://www.w3.org/2000/svg">
<path d="M31.1313 2.125H22.9009C22.4902 2.125 22.1572 2.45799 22.1572 2.86875C22.1572 3.27951 22.4902 3.6125 22.9009 3.6125H30.3875V10.8862C30.3875 11.2969 30.7205 11.6299 31.1313 11.6299C31.542 11.6299 31.875 11.2969 31.875 10.8862V2.86875C31.875 2.45799 31.542 2.125 31.1313 2.125ZM31.1313 21.747C30.7205 21.747 30.3875 22.08 30.3875 22.4908V29.7645H22.9009C22.4902 29.7645 22.1572 30.0974 22.1572 30.5082C22.1572 30.919 22.4902 31.252 22.9009 31.252H31.1313C31.542 31.252 31.875 30.919 31.875 30.5082V22.4908C31.875 22.08 31.542 21.747 31.1313 21.747ZM11.0991 29.7645H3.6125V22.4908C3.6125 22.08 3.27951 21.747 2.86875 21.747C2.45799 21.747 2.125 22.08 2.125 22.4908V30.5082C2.125 30.919 2.45799 31.252 2.86875 31.252H11.0991C11.5099 31.252 11.8428 30.919 11.8428 30.5082C11.8428 30.0974 11.5101 29.7645 11.0991 29.7645ZM2.86875 11.6299C3.27951 11.6299 3.6125 11.2969 3.6125 10.8862V3.6125H11.0991C11.5099 3.6125 11.8428 3.27951 11.8428 2.86875C11.8428 2.45799 11.5099 2.125 11.0991 2.125H2.86875C2.45799 2.125 2.125 2.45799 2.125 2.86875V10.8862C2.125 11.2969 2.45799 11.6299 2.86875 11.6299Z" fill="#5E5E61"/>
<path d="M17.3864 7.72656C15.2149 7.72656 13.1283 8.53872 11.6473 10.1551C10.2665 11.669 9.48737 13.6797 9.48737 15.8008V16.2108C8.5 17.019 8.5 18.3319 8.5 18.734C8.5 20.0468 9.4758 21.1389 10.6599 21.541C11.6473 25.4756 14.8176 27.8175 17.3864 27.8175C19.9551 27.8175 23.1255 25.4756 24.1128 21.541C25.2969 21.2375 26.2727 20.1414 26.2727 18.8286C26.2727 18.324 26.2727 17.1136 25.2854 16.3054V15.8954C25.2854 13.7743 24.5063 11.7637 23.1255 10.2498C21.6444 8.53477 19.5578 7.72656 17.3864 7.72656ZM14.4242 12.7729C17.88 17.3147 20.9425 11.6572 23.3106 17.4093C23.3106 17.4093 24.4947 17.7168 24.298 18.8286C24.1013 20.24 22.5084 19.9325 22.5084 19.9325L22.3232 20.6579C21.6328 24.0879 18.9677 25.8935 17.3864 25.8935C15.805 25.8935 13.1399 24.0879 12.4495 20.6579L12.3569 19.9325C12.3569 19.9325 10.5673 20.0389 10.5673 18.8286C10.5673 17.5158 11.5547 17.4093 11.5547 17.4093L12.4495 17.8193C12.4495 15.6983 13.2402 13.2776 14.4242 12.7729ZM14.9179 16.8101C14.1003 16.8101 13.4369 17.4882 13.4369 18.324C13.4369 19.1598 14.1003 19.8379 14.9179 19.8379C15.7356 19.8379 16.399 19.1598 16.399 18.324C16.399 17.4882 15.7356 16.8101 14.9179 16.8101ZM19.8548 16.8101C19.0371 16.8101 18.3737 17.4882 18.3737 18.324C18.3737 19.1598 19.0371 19.8379 19.8548 19.8379C20.6725 19.8379 21.3359 19.1598 21.3359 18.324C21.3359 17.4882 20.6725 16.8101 19.8548 16.8101Z" fill="#5E5E61"/>
<path d="M5.63145 23.3615C5.22068 23.3615 4.8877 23.6945 4.8877 24.1052V27.8185C4.8877 28.2292 5.22068 28.5622 5.63145 28.5622H9.44327C9.85403 28.5622 10.187 28.2292 10.187 27.8185C10.187 27.4077 9.85403 27.0747 9.44327 27.0747H6.3752V24.1052C6.3752 23.6945 6.04221 23.3615 5.63145 23.3615ZM10.1868 5.56016C10.1868 5.14939 9.85382 4.81641 9.44306 4.81641H5.63145C5.22068 4.81641 4.8877 5.14939 4.8877 5.56016V9.27317C4.8877 9.68393 5.22068 10.0169 5.63145 10.0169C6.04221 10.0169 6.3752 9.68393 6.3752 9.27317V6.30391H9.44327C9.85382 6.30391 10.1868 5.97092 10.1868 5.56016ZM29.1133 5.56016C29.1133 5.14939 28.7803 4.81641 28.3696 4.81641H24.5578C24.147 4.81641 23.814 5.14939 23.814 5.56016C23.814 5.97092 24.147 6.30391 24.5578 6.30391H27.6258V9.27317C27.6258 9.68393 27.9588 10.0169 28.3696 10.0169C28.7803 10.0169 29.1133 9.68393 29.1133 9.27317V5.56016ZM28.3696 23.3615C27.9588 23.3615 27.6258 23.6945 27.6258 24.1052V27.0747H24.5578C24.147 27.0747 23.814 27.4077 23.814 27.8185C23.814 28.2292 24.147 28.5622 24.5578 28.5622H28.3696C28.7803 28.5622 29.1133 28.2292 29.1133 27.8185V24.1052C29.1133 23.6945 28.7803 23.3615 28.3696 23.3615Z" fill="#5E5E61"/>
</svg>
