<svg width="29" height="30" viewBox="0 0 29 30" fill="none" xmlns="http://www.w3.org/2000/svg">
<circle cx="12" cy="8" r="8" fill="#767676"/>
<path d="M23.8394 29.5152C26.4523 29.5152 22.8394 17.5152 14.3394 18.0152L9.33942 18.0152C2.83942 19.0152 1.33939 23.5152 0.339388 26.5152C-0.460612 28.9152 0.339388 29.5152 0.839388 29.5152H11.3394H23.8394Z" fill="url(#paint0_linear_208_18941)"/>
<path d="M24.08 12C23.6117 12 23.232 12.3797 23.232 12.848V15.312H20.768C20.3438 15.312 20 15.6558 20 16.08C20 16.5042 20.3438 16.848 20.768 16.848H23.232V19.312C23.232 19.7803 23.6117 20.16 24.08 20.16C24.5483 20.16 24.928 19.7803 24.928 19.312V16.848H27.392C27.8162 16.848 28.16 16.5042 28.16 16.08C28.16 15.6558 27.8162 15.312 27.392 15.312H24.928V12.848C24.928 12.3797 24.5483 12 24.08 12Z" fill="#767676"/>
<defs>
<linearGradient id="paint0_linear_208_18941" x1="12.3373" y1="18" x2="12.3373" y2="29.5152" gradientUnits="userSpaceOnUse">
<stop stop-color="#767676"/>
</linearGradient>
</defs>
</svg>
