<svg width="33" height="33" viewBox="0 0 33 33" fill="none" xmlns="http://www.w3.org/2000/svg">
<path d="M31.9 9.89922V7.14922C31.9 5.93427 30.915 4.94922 29.7 4.94922H2.2C0.98505 4.94922 0 5.93427 0 7.14922V9.89922H31.9Z" fill="#767676"/>
<path d="M18.3519 12.0996H0V24.7496C0 25.9646 0.98505 26.9496 2.2 26.9496H16.6507C15.1828 25.15 14.3 22.8538 14.3 20.3496C14.3 16.9919 15.8906 14.012 18.3519 12.0996ZM2.2 19.7996H9.35V21.4496H2.2V19.7996ZM12.1 24.7496H2.2V23.0996H12.1V24.7496Z" fill="#767676"/>
<path d="M24.75 12.0996C20.1938 12.0996 16.5 15.7934 16.5 20.3496C16.5 24.9058 20.1938 28.5996 24.75 28.5996C29.3062 28.5996 33 24.9058 33 20.3496C33 15.7934 29.3062 12.0996 24.75 12.0996ZM24.2 24.655L20.1223 20.5773L21.6777 19.0219L24.2 21.5442L28.3723 17.3719L29.9277 18.9273L24.2 24.655Z" fill="#767676"/>
</svg>
