<svg width="28" height="28" viewBox="0 0 28 28" fill="none" xmlns="http://www.w3.org/2000/svg">
<path d="M22.4 28C19.3315 27.9925 16.8375 25.5228 16.8 22.4546V19.6H11.2V22.428C11.1845 25.5171 8.67051 28.0102 5.58138 28C2.49225 27.9897 -0.00510715 25.4798 7.84323e-06 22.3907C0.00513857 19.3016 2.5108 16.8 5.59995 16.8H8.39996V11.2H5.59995C2.5108 11.2 0.00513857 8.69844 7.84323e-06 5.60931C-0.00510715 2.52018 2.49225 0.0103475 5.58138 3.15081e-05C8.67051 -0.0102211 11.1845 2.48292 11.2 5.57202V8.40001H16.8V5.60002C16.8 2.50723 19.3072 3.15081e-05 22.4 3.15081e-05C25.4928 3.15081e-05 28 2.50723 28 5.60002C28 8.69281 25.4928 11.2 22.4 11.2H19.6V16.8H22.4C25.4928 16.8 28 19.3072 28 22.4C28 25.4928 25.4928 28 22.4 28ZM19.6 19.6V22.4C19.6 23.9464 20.8536 25.2 22.4 25.2C23.9464 25.2 25.2 23.9464 25.2 22.4C25.2 20.8536 23.9464 19.6 22.4 19.6H19.6ZM5.59995 19.6C4.05355 19.6 2.79994 20.8536 2.79994 22.4C2.79994 23.9464 4.05355 25.2 5.59995 25.2C6.34497 25.2079 7.06179 24.9155 7.58862 24.3886C8.11546 23.8618 8.40791 23.145 8.39996 22.4V19.6H5.59995ZM11.2 11.2V16.8H16.8V11.2H11.2ZM22.4 2.80003C21.655 2.79208 20.9382 3.08452 20.4113 3.61136C19.8845 4.13819 19.592 4.85501 19.6 5.60002V8.40001H22.4C23.145 8.40796 23.8618 8.11552 24.3887 7.58868C24.9155 7.06185 25.2079 6.34503 25.2 5.60002C25.2079 4.85501 24.9155 4.13819 24.3887 3.61136C23.8618 3.08452 23.145 2.79208 22.4 2.80003ZM5.59995 2.80003C4.85493 2.79208 4.13811 3.08452 3.61128 3.61136C3.08444 4.13819 2.792 4.85501 2.79994 5.60002C2.792 6.34503 3.08444 7.06185 3.61128 7.58868C4.13811 8.11552 4.85493 8.40796 5.59995 8.40001H8.39996V5.60002C8.40791 4.85501 8.11546 4.13819 7.58862 3.61136C7.06179 3.08452 6.34497 2.79208 5.59995 2.80003Z" fill="#5E5E61"/>
</svg>
