<svg width="27" height="30" viewBox="0 0 27 30" fill="none" xmlns="http://www.w3.org/2000/svg">
<path d="M13.5 0C10.2012 0 7.03125 1.21272 4.78125 3.62637C2.68359 5.88697 1.5 8.88933 1.5 12.0565V12.6688C0 13.8756 0 15.8359 0 16.4364C0 18.3968 1.48242 20.0275 3.28125 20.6279C4.78125 26.5031 9.59766 30 13.5 30C17.4023 30 22.2188 26.5031 23.7188 20.6279C25.5176 20.1746 27 18.5381 27 16.5777C27 15.8242 27 14.0169 25.5 12.81V12.1978C25.5 9.03061 24.3164 6.02826 22.2188 3.76766C19.9688 1.20683 16.7988 0 13.5 0ZM9 7.53532C14.25 14.3171 18.9023 5.86931 22.5 14.4584C22.5 14.4584 24.2988 14.9176 24 16.5777C23.7012 18.6852 21.2812 18.2261 21.2812 18.2261L21 19.3093C19.9512 24.4309 15.9023 27.1272 13.5 27.1272C11.0977 27.1272 7.04883 24.4309 6 19.3093L5.85938 18.2261C5.85938 18.2261 3.14062 18.385 3.14062 16.5777C3.14062 14.6173 4.64062 14.4584 4.64062 14.4584L6 15.0706C6 11.9035 7.20117 8.28885 9 7.53532ZM9.75 13.5636C8.50781 13.5636 7.5 14.5761 7.5 15.8242C7.5 17.0722 8.50781 18.0848 9.75 18.0848C10.9922 18.0848 12 17.0722 12 15.8242C12 14.5761 10.9922 13.5636 9.75 13.5636ZM17.25 13.5636C16.0078 13.5636 15 14.5761 15 15.8242C15 17.0722 16.0078 18.0848 17.25 18.0848C18.4922 18.0848 19.5 17.0722 19.5 15.8242C19.5 14.5761 18.4922 13.5636 17.25 13.5636Z" fill="#5E5E61"/>
</svg>
